<svg id="Layer_1" data-name="Layer 1" xmlns="http://www.w3.org/2000/svg" xmlns:xlink="http://www.w3.org/1999/xlink" viewBox="0 0 1874.83 320.52"><defs><style>.cls-1{fill:#f73e3a;stroke:#f70c3a;stroke-miterlimit:10.43;stroke-width:0.09px;}.cls-2{fill:url(#linear-gradient);}</style><linearGradient id="linear-gradient" x1="954.22" y1="89.78" x2="954.22" y2="410.2" gradientUnits="userSpaceOnUse"><stop offset="0" stop-color="#ef0a6a"/><stop offset="0.26" stop-color="#f20b56"/><stop offset="0.8" stop-color="#fb0c22"/><stop offset="1" stop-color="#fe0d0d"/></linearGradient></defs><path class="cls-1" d="M267,90.76c8-1.37,16.24-.91,24.37-.88a111.07,111.07,0,0,1,68.27,29c7.94,6.46,14.06,14.79,20.07,23,20.11,30.34,23.56,70.62,9.94,104.25-5.57,14.18-15,26.31-22.87,39.21-24.78,39.44-50.06,78.56-75.09,117.84-1.57,2.29-2.77,5.11-5.35,6.46a5.29,5.29,0,0,1-6.75-1.64c-7.51-10.69-14.14-21.95-21.34-32.84C235,337.6,210.56,300.84,187.06,263.47c-8.06-13.67-14-28.76-16-44.57-2.58-21.54.1-44,9.61-63.67,8.71-18.69,23.1-34.31,39.82-46.17A112.77,112.77,0,0,1,267,90.76Zm4,28c-19.27,3-37.71,12.48-50.63,27.22-12.23,12.39-19.52,29.08-22.32,46.13-2.27,16.08.67,32.62,6.68,47.59,7,17.48,20.66,31.9,37.12,40.8,27,14.55,61.66,13.9,88-2,16.94-9.65,29.26-26.21,35.62-44.46,4.82-14.42,6.84-30,3.9-45a87.44,87.44,0,0,0-31-51.89,86.38,86.38,0,0,0-46.93-19C284.69,118,277.81,117.6,271.07,118.75Z" transform="translate(-16.81 -89.74)"/><path class="cls-1" d="M1522.48,141.08c20.76-10,44.13-14.16,67.09-13,17.65.85,35.25,5.41,50.65,14.19a112.63,112.63,0,0,1,39.65,38.5c-13.86,7.56-27.69,15.18-41.55,22.73-10.23-15.39-26.68-26.76-45-29.92a74.73,74.73,0,0,0-49.75,9.46,72,72,0,0,0-29.94,36.09,89.06,89.06,0,0,0-2.93,52.87c4.14,16.57,13.86,31.87,27.8,41.89,15.66,11.45,36,15.79,55.08,12.89a59.12,59.12,0,0,0,34.05-17.59,69.05,69.05,0,0,0,15.9-27.81h-73.67q0-22.19,0-44.37h129a180.24,180.24,0,0,1-7.79,55.38c-5.7,18.05-15.14,35.16-28.73,48.47a104.83,104.83,0,0,1-43.94,25.84c-35.94,10.6-76.81,6.76-108.51-13.93-26.47-16.8-45.13-44.89-51.06-75.61-4.87-25.07-3.14-51.69,6.4-75.48C1475.74,175.16,1496.77,153.27,1522.48,141.08Z" transform="translate(-16.81 -89.74)"/><path class="cls-1" d="M445.5,131.75H612.75q0,22.19,0,44.37-58.44,0-116.88,0,0,24.75,0,49.49H610.25q0,22.2,0,44.38c-38.14,0-76.27-.06-114.41,0,.07,32.7,0,65.39,0,98.08H445.51Q445.5,249.93,445.5,131.75Z" transform="translate(-16.81 -89.74)"/><path class="cls-1" d="M1171.5,131.88H1217q0,118.13,0,236.24h-45.48c0-7.26,0-14.52,0-21.78a71.35,71.35,0,0,1-20.18,17.53c-26.4,15.09-62.49,9.62-83.74-12-12.09-12.12-19.29-28.41-22.41-45.08a134.27,134.27,0,0,1-.29-46.93c3.1-17.73,10.78-35.09,23.92-47.66,19.71-19.26,51.29-24.85,76.57-14.08a65.74,65.74,0,0,1,26.15,20.67Q1171.46,175.35,1171.5,131.88Zm-68.22,112.9c-9.9,10-14,24.42-13.8,38.2,0,13.94,4.43,28.53,14.77,38.3,9.69,9.28,24.06,12.75,37.09,10.15,11.79-2.34,23.16-8.6,30.16-18.57V253.92c.28-1.91-1.22-3.26-2.29-4.61-7.3-8.5-17.87-13.8-28.8-15.77C1127.2,231.17,1112.75,235.09,1103.28,244.78Z" transform="translate(-16.81 -89.74)"/><path class="cls-1" d="M274.6,134.26a70.75,70.75,0,1,1-1,140.11c-26.15-3.59-49.19-23.19-57-48.4a70.74,70.74,0,0,1,58-91.71Z" transform="translate(-16.81 -89.74)"/><path class="cls-1" d="M96.72,167.31a11.19,11.19,0,0,1,12.1,17.95c-4.41,5.2-13.85,4.82-17.53-1C87,178.5,90.06,169.55,96.72,167.31Z" transform="translate(-16.81 -89.74)"/><path class="cls-1" d="M126.8,182.62c-3-5.92.67-14.51,7.69-14.93,11-.1,22,0,33,0-2,6.82-2.82,13.88-4.52,20.74-8.81-.35-17.63,0-26.43-.15A10.67,10.67,0,0,1,126.8,182.62Z" transform="translate(-16.81 -89.74)"/><path class="cls-1" d="M711.07,193.78c21.81-2.92,45,.29,64,11.67a83.18,83.18,0,0,1,34.24,39.63C822.21,276,818.24,314.15,797,340.5c-12.51,15.74-31,26.25-50.65,30s-40.89,2.22-59.48-5.84a82.9,82.9,0,0,1-38.28-33.68c-19.08-32.18-17.2-76.15,6-105.76C668.26,207.65,689.21,196.6,711.07,193.78Zm5.94,40a39.47,39.47,0,0,0-24.31,15.41c-8.19,11-11.07,25.36-9.91,38.9,1,12.2,5.56,24.53,14.53,33.14,15.75,15.35,44,14.68,59-1.38,10.2-10.8,14.1-26.24,13.35-40.8-.62-13.65-5.84-27.69-16.49-36.67C743.4,233.93,729.53,231.29,717,233.75Z" transform="translate(-16.81 -89.74)"/><path class="cls-1" d="M915,193.73c21.31-2.78,43.84.28,62.64,11.09A83,83,0,0,1,1011.62,242c12.65,27.54,11.58,61.25-3.48,87.64a82.91,82.91,0,0,1-28.64,29.55c-13.19,8.13-28.58,12.31-44,13.07-19.16,1-38.93-2.86-55.37-13a83.28,83.28,0,0,1-31.34-34.69c-9.25-18.89-11.56-40.85-7.62-61.42,3.73-19.38,13.89-37.66,29.19-50.26C883,202.26,898.79,195.88,915,193.73Zm5.92,40a39.65,39.65,0,0,0-25.33,16.45c-8.46,12.08-10.78,27.61-8.73,42,1.74,12,7.28,23.93,17,31.58,16.23,12.78,42.24,11.18,56.33-4.13,10.51-11.3,14.26-27.53,13-42.61-1-13.31-6.53-26.81-17.15-35.3C946.37,233.84,933.06,231.4,921,233.69Z" transform="translate(-16.81 -89.74)"/><path class="cls-1" d="M1306.51,218.78c16.77-18.89,43-28.14,68-25.66,10.89.95,21.94,4.19,30.53,11.19,12.39,9.87,17.25,26.31,17.31,41.63q0,61.1,0,122.18h-45.48q0-52.56,0-105.12c-.15-8-2-16.6-7.87-22.45s-14.52-7.54-22.51-7.68c-15.52-.42-30.78,7.61-39.92,20-.17,38.41,0,76.83-.08,115.24h-45.11q0-85.56,0-171.12h45.12C1306.5,204.26,1306.49,211.52,1306.51,218.78Z" transform="translate(-16.81 -89.74)"/><path class="cls-1" d="M1786.05,193.76c21.09-2.79,43.38.12,62.09,10.61A82.9,82.9,0,0,1,1882.43,241c14.47,30.54,11.86,69.11-8.26,96.56a84.1,84.1,0,0,1-47.47,31.63,106.41,106.41,0,0,1-53-.4,83.86,83.86,0,0,1-44-28.93c-25-31.89-25.6-80.59-1.38-113.09C1741.88,208.36,1763.48,196.65,1786.05,193.76Zm6,40c-15.09,2.6-27.09,14.88-31.52,29.23-5.88,18.5-3.58,40.64,9.32,55.72,13.54,15.94,39.51,17.92,56.14,5.8,13.72-10.07,19.36-28,18.72-44.42-.46-15.14-6.6-31-19.37-39.87C1815.75,233.46,1803.35,231.55,1792,233.73Z" transform="translate(-16.81 -89.74)"/><path class="cls-1" d="M82.21,220.76a9.41,9.41,0,0,1,8.23-4.83c24.13-.12,48.27.07,72.4-.09.77,6.87,2.48,13.56,3.64,20.35-25.66,0-51.34.12-77,0C82.28,235.65,78.83,226.63,82.21,220.76Z" transform="translate(-16.81 -89.74)"/><path class="cls-1" d="M24,263.76c6.26-2.71,14.1,1.4,15.3,8.13,2.12,7.71-6.13,15.81-13.79,13.34-5.76-1.15-9.58-7.44-8.42-13.1A11.77,11.77,0,0,1,24,263.76Z" transform="translate(-16.81 -89.74)"/><path class="cls-1" d="M58.19,265.72c2.67-2.11,6.22-1.42,9.37-1.53,37,0,74,.13,110.94-.06,3.95,6.95,8.84,13.32,12.73,20.29-42.26.2-84.52,0-126.79.12a10,10,0,0,1-7.14-2.28C52.14,278.31,52.44,269,58.19,265.72Z" transform="translate(-16.81 -89.74)"/><path class="cls-1" d="M100.6,318.85c1.58-3.86,5.57-6.91,9.85-6.68,32.9.1,65.79-.06,98.69.06,4.26,6.77,8.81,13.36,13,20.17l-.18,0a32.71,32.71,0,0,1-4.53.39q-53.52-.07-107,0a10.34,10.34,0,0,1-9.6-6.22A16.56,16.56,0,0,1,100.6,318.85Z" transform="translate(-16.81 -89.74)"/><path class="cls-2" d="M267,90.76c8-1.37,16.24-.91,24.37-.88a111.07,111.07,0,0,1,68.27,29c7.94,6.46,14.06,14.79,20.07,23,20.11,30.34,23.56,70.62,9.94,104.25-5.57,14.18-15,26.31-22.87,39.21-24.78,39.44-50.06,78.56-75.09,117.84-1.57,2.29-2.77,5.11-5.35,6.46a5.29,5.29,0,0,1-6.75-1.64c-7.51-10.69-14.14-21.95-21.34-32.84C235,337.6,210.56,300.84,187.06,263.47c-8.06-13.67-14-28.76-16-44.57-2.58-21.54.1-44,9.61-63.67,8.71-18.69,23.1-34.31,39.82-46.17A112.77,112.77,0,0,1,267,90.76Zm4,28c-19.27,3-37.71,12.48-50.63,27.22-12.23,12.39-19.52,29.08-22.32,46.13-2.27,16.08.67,32.62,6.68,47.59,7,17.48,20.66,31.9,37.12,40.8,27,14.55,61.66,13.9,88-2,16.94-9.65,29.26-26.21,35.62-44.46,4.82-14.42,6.84-30,3.9-45a87.44,87.44,0,0,0-31-51.89,86.38,86.38,0,0,0-46.93-19C284.69,118,277.81,117.6,271.07,118.75Z" transform="translate(-16.81 -89.74)"/><path class="cls-2" d="M1522.48,141.08c20.76-10,44.13-14.16,67.09-13,17.65.85,35.25,5.41,50.65,14.19a112.63,112.63,0,0,1,39.65,38.5c-13.86,7.56-27.69,15.18-41.55,22.73-10.23-15.39-26.68-26.76-45-29.92a74.73,74.73,0,0,0-49.75,9.46,72,72,0,0,0-29.94,36.09,89.06,89.06,0,0,0-2.93,52.87c4.14,16.57,13.86,31.87,27.8,41.89,15.66,11.45,36,15.79,55.08,12.89a59.12,59.12,0,0,0,34.05-17.59,69.05,69.05,0,0,0,15.9-27.81h-73.67q0-22.19,0-44.37h129a180.24,180.24,0,0,1-7.79,55.38c-5.7,18.05-15.14,35.16-28.73,48.47a104.83,104.83,0,0,1-43.94,25.84c-35.94,10.6-76.81,6.76-108.51-13.93-26.47-16.8-45.13-44.89-51.06-75.61-4.87-25.07-3.14-51.69,6.4-75.48C1475.74,175.16,1496.77,153.27,1522.48,141.08Z" transform="translate(-16.81 -89.74)"/><path class="cls-2" d="M445.5,131.75H612.75q0,22.19,0,44.37-58.44,0-116.88,0,0,24.75,0,49.49H610.25q0,22.2,0,44.38c-38.14,0-76.27-.06-114.41,0,.07,32.7,0,65.39,0,98.08H445.51Q445.5,249.93,445.5,131.75Z" transform="translate(-16.81 -89.74)"/><path class="cls-2" d="M1171.5,131.88H1217q0,118.13,0,236.24h-45.48c0-7.26,0-14.52,0-21.78a71.35,71.35,0,0,1-20.18,17.53c-26.4,15.09-62.49,9.62-83.74-12-12.09-12.12-19.29-28.41-22.41-45.08a134.27,134.27,0,0,1-.29-46.93c3.1-17.73,10.78-35.09,23.92-47.66,19.71-19.26,51.29-24.85,76.57-14.08a65.74,65.74,0,0,1,26.15,20.67Q1171.46,175.35,1171.5,131.88Zm-68.22,112.9c-9.9,10-14,24.42-13.8,38.2,0,13.94,4.43,28.53,14.77,38.3,9.69,9.28,24.06,12.75,37.09,10.15,11.79-2.34,23.16-8.6,30.16-18.57V253.92c.28-1.91-1.22-3.26-2.29-4.61-7.3-8.5-17.87-13.8-28.8-15.77C1127.2,231.17,1112.75,235.09,1103.28,244.78Z" transform="translate(-16.81 -89.74)"/><path class="cls-2" d="M274.6,134.26a70.75,70.75,0,1,1-1,140.11c-26.15-3.59-49.19-23.19-57-48.4a70.74,70.74,0,0,1,58-91.71Z" transform="translate(-16.81 -89.74)"/><path class="cls-2" d="M96.72,167.31a11.19,11.19,0,0,1,12.1,17.95c-4.41,5.2-13.85,4.82-17.53-1C87,178.5,90.06,169.55,96.72,167.31Z" transform="translate(-16.81 -89.74)"/><path class="cls-2" d="M126.8,182.62c-3-5.92.67-14.51,7.69-14.93,11-.1,22,0,33,0-2,6.82-2.82,13.88-4.52,20.74-8.81-.35-17.63,0-26.43-.15A10.67,10.67,0,0,1,126.8,182.62Z" transform="translate(-16.81 -89.74)"/><path class="cls-2" d="M711.07,193.78c21.81-2.92,45,.29,64,11.67a83.18,83.18,0,0,1,34.24,39.63C822.21,276,818.24,314.15,797,340.5c-12.51,15.74-31,26.25-50.65,30s-40.89,2.22-59.48-5.84a82.9,82.9,0,0,1-38.28-33.68c-19.08-32.18-17.2-76.15,6-105.76C668.26,207.65,689.21,196.6,711.07,193.78Zm5.94,40a39.47,39.47,0,0,0-24.31,15.41c-8.19,11-11.07,25.36-9.91,38.9,1,12.2,5.56,24.53,14.53,33.14,15.75,15.35,44,14.68,59-1.38,10.2-10.8,14.1-26.24,13.35-40.8-.62-13.65-5.84-27.69-16.49-36.67C743.4,233.93,729.53,231.29,717,233.75Z" transform="translate(-16.81 -89.74)"/><path class="cls-2" d="M915,193.73c21.31-2.78,43.84.28,62.64,11.09A83,83,0,0,1,1011.62,242c12.65,27.54,11.58,61.25-3.48,87.64a82.91,82.91,0,0,1-28.64,29.55c-13.19,8.13-28.58,12.31-44,13.07-19.16,1-38.93-2.86-55.37-13a83.28,83.28,0,0,1-31.34-34.69c-9.25-18.89-11.56-40.85-7.62-61.42,3.73-19.38,13.89-37.66,29.19-50.26C883,202.26,898.79,195.88,915,193.73Zm5.92,40a39.65,39.65,0,0,0-25.33,16.45c-8.46,12.08-10.78,27.61-8.73,42,1.74,12,7.28,23.93,17,31.58,16.23,12.78,42.24,11.18,56.33-4.13,10.51-11.3,14.26-27.53,13-42.61-1-13.31-6.53-26.81-17.15-35.3C946.37,233.84,933.06,231.4,921,233.69Z" transform="translate(-16.81 -89.74)"/><path class="cls-2" d="M1306.51,218.78c16.77-18.89,43-28.14,68-25.66,10.89.95,21.94,4.19,30.53,11.19,12.39,9.87,17.25,26.31,17.31,41.63q0,61.1,0,122.18h-45.48q0-52.56,0-105.12c-.15-8-2-16.6-7.87-22.45s-14.52-7.54-22.51-7.68c-15.52-.42-30.78,7.61-39.92,20-.17,38.41,0,76.83-.08,115.24h-45.11q0-85.56,0-171.12h45.12C1306.5,204.26,1306.49,211.52,1306.51,218.78Z" transform="translate(-16.81 -89.74)"/><path class="cls-2" d="M1786.05,193.76c21.09-2.79,43.38.12,62.09,10.61A82.9,82.9,0,0,1,1882.43,241c14.47,30.54,11.86,69.11-8.26,96.56a84.1,84.1,0,0,1-47.47,31.63,106.41,106.41,0,0,1-53-.4,83.86,83.86,0,0,1-44-28.93c-25-31.89-25.6-80.59-1.38-113.09C1741.88,208.36,1763.48,196.65,1786.05,193.76Zm6,40c-15.09,2.6-27.09,14.88-31.52,29.23-5.88,18.5-3.58,40.64,9.32,55.72,13.54,15.94,39.51,17.92,56.14,5.8,13.72-10.07,19.36-28,18.72-44.42-.46-15.14-6.6-31-19.37-39.87C1815.75,233.46,1803.35,231.55,1792,233.73Z" transform="translate(-16.81 -89.74)"/><path class="cls-2" d="M82.21,220.76a9.41,9.41,0,0,1,8.23-4.83c24.13-.12,48.27.07,72.4-.09.77,6.87,2.48,13.56,3.64,20.35-25.66,0-51.34.12-77,0C82.28,235.65,78.83,226.63,82.21,220.76Z" transform="translate(-16.81 -89.74)"/><path class="cls-2" d="M24,263.76c6.26-2.71,14.1,1.4,15.3,8.13,2.12,7.71-6.13,15.81-13.79,13.34-5.76-1.15-9.58-7.44-8.42-13.1A11.77,11.77,0,0,1,24,263.76Z" transform="translate(-16.81 -89.74)"/><path class="cls-2" d="M58.19,265.72c2.67-2.11,6.22-1.42,9.37-1.53,37,0,74,.13,110.94-.06,3.95,6.95,8.84,13.32,12.73,20.29-42.26.2-84.52,0-126.79.12a10,10,0,0,1-7.14-2.28C52.14,278.31,52.44,269,58.19,265.72Z" transform="translate(-16.81 -89.74)"/><path class="cls-2" d="M100.6,318.85c1.58-3.86,5.57-6.91,9.85-6.68,32.9.1,65.79-.06,98.69.06,4.26,6.77,8.81,13.36,13,20.17l-.18,0a32.71,32.71,0,0,1-4.53.39q-53.52-.07-107,0a10.34,10.34,0,0,1-9.6-6.22A16.56,16.56,0,0,1,100.6,318.85Z" transform="translate(-16.81 -89.74)"/></svg>