<svg id="Layer_1" data-name="Layer 1" xmlns="http://www.w3.org/2000/svg" viewBox="0 0 147.98 143"><defs><style>.cls-1{fill:#e2f3f7;}.cls-1,.cls-10,.cls-11,.cls-2,.cls-3,.cls-4,.cls-5,.cls-6,.cls-7,.cls-8,.cls-9{fill-rule:evenodd;}.cls-2{fill:#ff431e;}.cls-3{fill:#3b646e;}.cls-4{fill:#fdeeed;}.cls-12,.cls-5{fill:#fff;}.cls-6{fill:#f0c4c1;}.cls-7{fill:#ff5e3e;}.cls-8{fill:#da260d;}.cls-9{fill:#c7c6b5;}.cls-10{fill:#74a3a5;}.cls-11{fill:#528c8f;}</style></defs><path class="cls-1" d="M148.78,74.05c6.9-25.64.05-73.24-56.69-54.32C65.78,28.49,55.53-6.51,24.51,13,6.43,31.38,36.12,59.77,16.78,64.6c-27.25,8-9.94,49.53,16.09,65.25,30.33,18.31,59,27.06,73.15,13.67,8.48-8-3.06-24.38,13.38-36C131.68,98.84,144.43,90.23,148.78,74.05Z" transform="translate(-3 -7)"/><path class="cls-2" d="M21.26,31.38c0,2.14-1.49,80.55-1.12,91.49,0,.73,1.28.71,2,.77,5.79.47,31.43.19,57.18.2,26.94,0,52.84-.17,53.43-1,1.22-1.69-1.25-90.51-1.25-90.51l-110.24-1Z" transform="translate(-3 -7)"/><path class="cls-3" d="M29,67.64s-1.09,56.19-.29,56.19c1.17,0,25.54.25,26.81,0,.65-.13.24-57.26.24-57.26Z" transform="translate(-3 -7)"/><path class="cls-4" d="M32.17,74.66c-.4,5.67.09,19.47.13,20.2S52.74,95,52.74,95l.12-22.7s-14-.4-19.32-.25C32.31,72.12,32.34,72.25,32.17,74.66ZM32,97.92s-.74,19.27-.08,19.63,20.49.17,20.49.17l.49-19.67Z" transform="translate(-3 -7)"/><path class="cls-5" d="M61.08,67.49c0,.57-.23,11-.34,21.54-.11,10.83-.1,21.7.3,22.15s16.08.13,32,.08c16.31,0,32.82.16,33.2-.2s0-12.39,0-23.84c0-10.13.29-19.88.29-19.88s-52.33-1.21-56.18-.49A57.27,57.27,0,0,1,61.08,67.49Z" transform="translate(-3 -7)"/><path class="cls-4" d="M64.61,68.41c-.61,1-1,39.38-.49,40s57.8.8,58.56-.19.55-40.65,0-41-57.46.14-58.07,1.17" transform="translate(-3 -7)"/><path class="cls-6" d="M70.05,104.25l2.1,0,0,4.47,2.1,0,0-4.46,8,.13-.1,4.36,1.91,0,.06-4.31,2.32,0L86.14,102l-16-.44Zm19.75-2.4-1.89,7,1.6,0,1.85-7.24Zm-24.24-.35,1.63,7.16,1.55,0L67.13,101Zm51.68,2.8-2.08,0-.07,4.41-2.07,0,.07-4.41-7.94-.13-.16,4.69-1.85,0,.17-4.69-2.3,0,.41-2.48,15.86.07Zm-18.41-2.79,2,7.34-1.68,0-1.89-7.28Zm22.48.47-1.87,6.63-1.59,0,1.93-7.09Z" transform="translate(-3 -7)"/><path class="cls-7" d="M19.43,29.23c-.91.2-.63,4.6,0,5.27s112.84,0,113.4-.58.46-4.19.3-5-113.1.16-113.67.28" transform="translate(-3 -7)"/><path class="cls-8" d="M21.2,34.62c13.49.43,99-.08,110.34-.59l0-1.69-110.24-1C21.25,31.61,21.23,32.76,21.2,34.62Z" transform="translate(-3 -7)"/><path class="cls-9" d="M50.65,93.66s-.43,7.22-.17,7.74,4.13.34,4.13.34,0-8.25-.18-8.25Z" transform="translate(-3 -7)"/><path class="cls-6" d="M64.41,67l.08,17.25,58.55,1-.52-21.92Z" transform="translate(-3 -7)"/><path class="cls-5" d="M92.86,67.7v42.81L95.7,110,96,67.7Z" transform="translate(-3 -7)"/><path class="cls-10" d="M14.71,62.31l.06,3a4.62,4.62,0,0,0,3.09,4.38,4.3,4.3,0,0,0,1.78.17c1.65-.2,4.3-2.41,4.3-2.41S25.26,70,27.44,70s4.68-2.74,4.68-2.74,1.85,3.41,4.3,3.45,6-3.29,6-3.29.78,2.83,3.23,3.15,4.67-2.46,4.67-2.46,1.8,2.9,4.18,2.84c2.08,0,5.09-3.54,5.09-3.54s2.4,3.13,4,3.16,4.68-2.74,4.68-2.74.76,3.39,3.49,3.15,5.49-3,5.49-3,2.4,3.41,4,3.16,5-3,5-3,3.63,3.15,6,2.91c1.89-.21,3.41-1.88,4.25-3a4.94,4.94,0,0,0,4.24,1.82c1.64-.18,4.3-2.4,4.3-2.4s1.32,2.56,3.5,2.59,4.68-2.74,4.68-2.74,1.85,3.41,4.3,3.45,6-3.29,6-3.29.78,2.83,3.22,3.15,4.67-2.46,4.67-2.46,1.37,2.63,3.75,2.57a3.08,3.08,0,0,0,3.29-3.55c-.08-1.44-1-7.32-1-7.32Z" transform="translate(-3 -7)"/><path class="cls-10" d="M17.83,45c-.4.74-3.72,17.57-2.87,18.09s7.21,0,17.73-.12c18.45-.16,45.39-.21,54,0,15.09.35,50.56.16,50.9-.64s-2.19-17.39-2.85-17.88-18.14-.22-18.14-.22l-72.92.55S18.24,44.26,17.83,45Z" transform="translate(-3 -7)"/><path class="cls-11" d="M14.82,62.3c0,.45,0,.73.14.79.84.53,7.21,0,17.73-.12,18.45-.16,45.39-.21,54,0,15.09.35,50.56.16,50.9-.65a11.57,11.57,0,0,0-.14-2.46L14.82,62.3Z" transform="translate(-3 -7)"/><path class="cls-12" d="M76.68,46.86a4.92,4.92,0,0,1,.94,0A4.22,4.22,0,0,1,80.24,48a4.31,4.31,0,0,1,1.1,4.93,9.93,9.93,0,0,1-.9,1.5c-1,1.51-2,3-3,4.52a.72.72,0,0,1-.21.25.21.21,0,0,1-.26-.07c-.29-.42-.54-.86-.81-1.28-.88-1.46-1.81-2.89-2.7-4.35a4.62,4.62,0,0,1-.59-1.73,4.4,4.4,0,0,1,.4-2.45,4.67,4.67,0,0,1,1.56-1.77A4.33,4.33,0,0,1,76.68,46.86Zm.14,1.08a3.33,3.33,0,0,0-2,1A3.21,3.21,0,0,0,74,50.74a3.51,3.51,0,0,0,.23,1.84,3.19,3.19,0,0,0,1.41,1.6,3.51,3.51,0,0,0,3.4,0,3.14,3.14,0,0,0,1.4-1.7,3.44,3.44,0,0,0,.17-1.74,3.35,3.35,0,0,0-3-2.77A4.17,4.17,0,0,0,76.82,47.94Z" transform="translate(-3 -7)"/><path class="cls-12" d="M77,48.54a2.74,2.74,0,0,1,1.85,5A2.73,2.73,0,0,1,74.87,50,2.75,2.75,0,0,1,77,48.54Z" transform="translate(-3 -7)"/><path class="cls-12" d="M70.06,49.73a.43.43,0,1,1-.22.65A.44.44,0,0,1,70.06,49.73Z" transform="translate(-3 -7)"/><path class="cls-12" d="M71.21,50.34a.41.41,0,0,1,.31-.58l1.28,0c-.08.26-.12.53-.19.8-.34,0-.68,0-1,0A.43.43,0,0,1,71.21,50.34Z" transform="translate(-3 -7)"/><path class="cls-12" d="M69.47,51.79a.36.36,0,0,1,.32-.18c.94,0,1.87,0,2.8,0,0,.26.09.52.13.79l-3,0A.41.41,0,0,1,69.47,51.79Z" transform="translate(-3 -7)"/><path class="cls-12" d="M67.2,53.42a.44.44,0,1,1-.27.32A.44.44,0,0,1,67.2,53.42Z" transform="translate(-3 -7)"/><path class="cls-12" d="M68.52,53.51a.58.58,0,0,1,.37,0l4.28,0c.15.27.34.52.48.79l-4.89-.06a.35.35,0,0,1-.28-.09A.4.4,0,0,1,68.52,53.51Z" transform="translate(-3 -7)"/><path class="cls-12" d="M70.14,55.59a.4.4,0,0,1,.38-.26l3.81.06c.16.26.34.52.49.78h0l-.18,0-4.13-.06a.39.39,0,0,1-.37-.24A.61.61,0,0,1,70.14,55.59Z" transform="translate(-3 -7)"/></svg>